<?xml version="1.0" encoding="UTF-8" standalone="no"?><!-- Generator: Gravit.io --><svg xmlns="http://www.w3.org/2000/svg" xmlns:xlink="http://www.w3.org/1999/xlink" style="isolation:isolate" viewBox="0 0 100 50" width="100pt" height="50pt"><defs><clipPath id="_clipPath_KdjWBZGAIWMB75UA6EmlXLAMVY0qnneq"><rect width="100" height="50"/></clipPath></defs><g clip-path="url(#_clipPath_KdjWBZGAIWMB75UA6EmlXLAMVY0qnneq)"><g clip-path="url(#_clipPath_5lnB89lqTWdnpxX3s3BCTIlET988cr5P)"><text transform="matrix(1,0,0,1,1.531,46.219)" style="font-family:'Quicksand';font-weight:700;font-size:17px;font-style:normal;fill:#5d4675;stroke:none;">Support in</text></g><defs><clipPath id="_clipPath_5lnB89lqTWdnpxX3s3BCTIlET988cr5P"><rect x="0" y="0" width="87" height="21.3" transform="matrix(1,0,0,1,1.531,29.219)"/></clipPath></defs><path d=" M 91.278 9.177 C 89.681 8.259 87.659 8.769 86.769 10.315 C 86.621 10.573 86.717 10.907 86.983 11.06 C 87.25 11.213 87.586 11.129 87.735 10.87 C 88.328 9.84 89.676 9.5 90.741 10.112 C 91.007 10.265 91.344 10.181 91.492 9.922 C 91.641 9.664 91.545 9.331 91.278 9.177 Z  M 82.497 18.864 C 82.444 18.956 82.42 19.062 82.429 19.168 L 82.549 20.67 C 82.564 20.851 82.67 21.016 82.831 21.109 L 85.21 22.478 C 85.372 22.571 85.567 22.579 85.732 22.5 L 87.09 21.85 C 87.186 21.803 87.266 21.73 87.319 21.638 L 88.046 20.378 L 83.221 17.602 L 82.497 18.864 Z  M 92.622 6.841 C 89.537 5.066 85.919 6.21 84.356 8.927 C 83.611 10.223 83.427 11.69 83.725 13.064 C 83.908 13.907 84.027 15.523 83.758 16.665 L 83.757 16.667 L 85.205 17.5 L 85.207 17.496 C 85.287 17.357 85.345 17.206 85.379 17.048 C 85.509 16.431 85.778 14.761 85.346 12.767 C 85.12 11.726 85.288 10.667 85.806 9.761 C 87.037 7.607 89.756 7.058 91.816 8.243 C 93.945 9.468 94.712 12.141 93.527 14.202 C 93.006 15.107 92.165 15.784 91.158 16.11 C 89.229 16.734 87.92 17.803 87.446 18.229 C 87.324 18.339 87.221 18.467 87.139 18.609 L 87.137 18.611 L 88.585 19.444 L 88.586 19.443 C 89.439 18.636 90.895 17.927 91.716 17.661 C 93.053 17.228 94.229 16.331 94.975 15.035 C 96.608 12.197 95.554 8.528 92.622 6.841 Z " fill="rgb(0,0,0)"/><path d=" M 90.966 9.302 C 89.369 8.384 87.346 8.894 86.457 10.44 C 86.308 10.698 86.404 11.032 86.671 11.185 C 86.937 11.338 87.274 11.254 87.422 10.995 C 88.015 9.965 89.364 9.625 90.428 10.237 C 90.695 10.39 91.031 10.306 91.18 10.047 C 91.328 9.789 91.232 9.456 90.966 9.302 Z  M 92.31 6.966 C 89.224 5.191 85.606 6.335 84.044 9.052 C 83.298 10.348 83.114 11.815 83.413 13.189 C 83.595 14.032 83.714 15.648 83.446 16.79 L 83.445 16.792 L 84.893 17.625 L 84.895 17.621 C 84.974 17.482 85.033 17.331 85.066 17.173 C 85.197 16.556 85.466 14.886 85.033 12.892 C 84.807 11.851 84.975 10.792 85.493 9.886 C 86.724 7.732 89.444 7.183 91.503 8.368 C 93.632 9.593 94.4 12.266 93.214 14.327 C 92.694 15.232 91.853 15.909 90.846 16.235 C 88.917 16.859 87.607 17.928 87.134 18.354 C 87.012 18.464 86.908 18.592 86.826 18.734 L 86.825 18.736 L 88.273 19.569 L 88.274 19.568 C 89.126 18.761 90.582 18.052 91.403 17.786 C 92.74 17.353 93.917 16.456 94.662 15.16 C 96.295 12.322 95.242 8.653 92.31 6.966 Z " fill="rgb(220,144,63)"/><path d=" M 82.563 21.625 C 80.5 26.5 92.25 31 76 34.25" fill="none" vector-effect="non-scaling-stroke" stroke-width="0.5" stroke="rgb(0,0,0)" stroke-linejoin="miter" stroke-linecap="square" stroke-miterlimit="3"/></g></svg>