<?xml version="1.0" encoding="UTF-8" standalone="no"?><svg xmlns="http://www.w3.org/2000/svg" xmlns:xlink="http://www.w3.org/1999/xlink" style="isolation:isolate" viewBox="0 0 130 160" width="130pt" height="160pt"><defs><clipPath id="_clipPath_MwX3ZEvygEPaPmmEZstYMKf4a4XbZVxh"><rect width="130" height="160"/></clipPath></defs><g clip-path="url(#_clipPath_MwX3ZEvygEPaPmmEZstYMKf4a4XbZVxh)"><g><path d=" M 16 142.5 C 16 143.88 17.12 145 18.5 145 C 19.88 145 21 143.88 21 142.5 C 21 141.12 19.88 140 18.5 140 C 17.12 140 16 141.12 16 142.5 Z " fill="rgb(117,124,150)"/><circle vector-effect="non-scaling-stroke" cx="115.49999999999996" cy="141.5" r="2.5" fill="rgb(210,210,210)"/><circle vector-effect="non-scaling-stroke" cx="114.49999999999999" cy="19.075000000000003" r="2.5" fill="rgb(117,124,150)"/><circle vector-effect="non-scaling-stroke" cx="17.5" cy="20.499999999999996" r="2.5" fill="rgb(117,124,150)"/><mask id="_mask_SIFguTmWMT1qXN9JVMpnCs0ivkbPSquP" x="-200%" y="-200%" width="400%" height="400%"><rect x="-200%" y="-200%" width="400%" height="400%" style="fill:white;"/><path d=" M 36 143.95 L 36 136 L 111 136 L 111 32.4 L 65.783 79.95 L 22.45 32.2 L 22.45 143.95 L 15 143.95 L 15 18 L 21 18 L 65.783 67.95 L 111 18.2 L 117 18 L 117 143.95 L 36 143.95 Z " fill="rgb(117,124,150)" stroke="none"/></mask><path d=" M 36 143.95 L 36 136 L 111 136 L 111 32.4 L 65.783 79.95 L 22.45 32.2 L 22.45 143.95 L 15 143.95 L 15 18 L 21 18 L 65.783 67.95 L 111 18.2 L 117 18 L 117 143.95 L 36 143.95 Z " fill="rgb(117,124,150)"/><path d=" M 36 143.95 L 36 136 L 111 136 L 111 32.4 L 65.783 79.95 L 22.45 32.2 L 22.45 143.95 L 15 143.95 L 15 18 L 21 18 L 65.783 67.95 L 111 18.2 L 117 18 L 117 143.95 L 36 143.95 Z " fill="rgb(117,124,150))" mask="url(#_mask_SIFguTmWMT1qXN9JVMpnCs0ivkbPSquP)" vector-effect="non-scaling-stroke" stroke-width="6" stroke="rgb(210,210,210)" stroke-linejoin="miter" stroke-linecap="square" stroke-miterlimit="3"/></g></g></svg>

